
<?xml version="1.0" standalone="no"?>
<!DOCTYPE svg PUBLIC "-//W3C//DTD SVG 20010904//EN"
 "http://www.w3.org/TR/2001/REC-SVG-20010904/DTD/svg10.dtd">
<svg version="1.0" xmlns="http://www.w3.org/2000/svg"
 width="48px" height="48px" viewBox="0 0 198.000000 198.000000"
 preserveAspectRatio="xMidYMid meet">

<g transform="translate(0.000000,198.000000) scale(0.100000,-0.100000)"
fill="#BB6BD9" stroke="none">
<path d="M990 1255 c0 -13 -42 -15 -315 -15 l-315 0 0 -250 0 -250 315 0 c273
0 315 -2 315 -15 0 -13 43 -15 330 -15 l330 0 0 280 0 280 -330 0 c-287 0
-330 -2 -330 -15z m-60 -159 c0 -7 -9 -16 -20 -19 -15 -4 -20 -14 -20 -41 0
-29 4 -36 20 -36 11 0 20 -5 20 -11 0 -6 -9 -13 -20 -16 -16 -4 -20 -14 -20
-49 0 -37 -3 -44 -20 -44 -17 0 -20 7 -20 45 0 25 -4 45 -10 45 -5 0 -10 7
-10 15 0 8 5 15 10 15 6 0 10 15 10 33 0 18 7 43 16 55 17 24 64 31 64 8z
m450 -101 c0 -108 -1 -115 -20 -115 -19 0 -20 7 -20 115 0 108 1 115 20 115
19 0 20 -7 20 -115z m-771 -5 c23 -52 41 -98 41 -102 0 -19 -38 -5 -48 17 -9
20 -19 25 -47 25 -28 0 -38 -5 -47 -25 -10 -23 -38 -35 -38 -17 0 18 86 210
92 204 3 -4 25 -50 47 -102z m879 37 c2 -15 9 -27 18 -27 8 0 14 -4 14 -10 0
-5 -7 -10 -15 -10 -11 0 -15 -12 -15 -50 0 -43 -3 -50 -20 -50 -17 0 -20 7
-20 49 0 30 -5 52 -12 55 -10 5 -10 7 0 12 6 3 12 19 12 36 0 39 34 36 38 -5z
m-714 -23 c22 -9 10 -24 -20 -24 -33 0 -30 -13 6 -27 23 -9 30 -18 30 -37 0
-35 -39 -54 -76 -38 -31 15 -22 34 12 26 32 -8 32 13 -1 28 -57 26 -11 95 49
72z m304 -5 c20 1 22 -4 22 -59 0 -55 -2 -60 -22 -59 -13 0 -35 -3 -50 -6 -57
-15 -92 71 -47 116 15 15 28 19 47 14 15 -3 37 -6 50 -6z m122 -49 c0 -34 4
-50 13 -50 23 0 37 23 37 63 0 31 3 38 17 35 13 -2 17 -15 17 -58 1 -50 -1
-55 -21 -55 -12 0 -25 -4 -29 -8 -11 -11 -49 -8 -62 5 -7 7 -12 36 -12 65 0
46 3 53 20 53 17 0 20 -7 20 -50z"/>
<path d="M543 990 c-11 -28 -10 -30 14 -30 21 0 23 3 18 23 -12 36 -20 38 -32
7z"/>
<path d="M1000 961 c-13 -25 -13 -27 6 -45 22 -23 43 -20 56 9 20 45 -38 79
-62 36z"/>
</g>
</svg>